<?xml version="1.0" encoding="iso-8859-1"?>
<!-- Generator: Adobe Illustrator 18.0.0, SVG Export Plug-In . SVG Version: 6.00 Build 0)  -->
<!DOCTYPE svg PUBLIC "-//W3C//DTD SVG 1.1//EN" "http://www.w3.org/Graphics/SVG/1.1/DTD/svg11.dtd">
<svg version="1.1" id="Capa_1" xmlns="http://www.w3.org/2000/svg" xmlns:xlink="http://www.w3.org/1999/xlink" x="0px" y="0px"
	 viewBox="0 0 86.483 71.343" style="enable-background:new 0 0 86.483 71.343;" xml:space="preserve">
<g>
	<path d="M84.842,1.688C83.753,0.574,82.452,0,80.858,0H5.672C4.078,0,2.73,0.574,1.64,1.688C0.574,2.777,0,4.125,0,5.672v59.999
		c0,1.547,0.55,2.918,1.64,4.031c1.067,1.09,2.438,1.641,4.032,1.641h75.186c1.594,0,2.918-0.551,3.984-1.641
		c1.09-1.113,1.641-2.484,1.641-4.031V5.672C86.483,4.125,85.909,2.777,84.842,1.688z M81.327,65.671
		c0,0.328-0.141,0.469-0.469,0.469H5.672c-0.329,0-0.469-0.141-0.469-0.469V5.672c0-0.328,0.14-0.469,0.469-0.469h75.186
		c0.328,0,0.469,0.141,0.469,0.469V65.671z"/>
	<path d="M61.921,30.562c2.484,0,4.5-2.062,4.5-4.547c0-2.39-2.016-4.406-4.5-4.406c-2.391,0-4.406,2.016-4.406,4.406
		C57.515,28.5,59.53,30.562,61.921,30.562z"/>
	<polygon points="48.655,46.171 29.671,20.672 12.468,55.874 10.172,61.078 75.936,61.078 58.171,37.922 	"/>
</g>
<g>
</g>
<g>
</g>
<g>
</g>
<g>
</g>
<g>
</g>
<g>
</g>
<g>
</g>
<g>
</g>
<g>
</g>
<g>
</g>
<g>
</g>
<g>
</g>
<g>
</g>
<g>
</g>
<g>
</g>
</svg>
