<?xml version="1.0"?>
<svg version="1.1" xmlns="http://www.w3.org/2000/svg" xmlns:xlink="http://www.w3.org/1999/xlink" width="86.483" height="71.343">
    <desc iVinci="yes" version="4.5" gridStep="20" showGrid="no" snapToGrid="no" codePlatform="0"/>
    <g id="Layer1" opacity="1">
        <g id="Shape1">
            <desc shapeID="1" type="0" basicInfo-basicType="0" basicInfo-roundedRectRadius="12" basicInfo-polygonSides="6" basicInfo-starPoints="5" bounding="rect(-43.2415,-35.6715,86.483,71.343)" text="" font-familyName="" font-pixelSize="20" font-bold="0" font-underline="0" font-alignment="1" strokeStyle="0" markerStart="0" markerEnd="0" shadowEnabled="0" shadowOffsetX="0" shadowOffsetY="2" shadowBlur="4" shadowOpacity="160" blurEnabled="0" blurRadius="4" transform="matrix(1,0,0,1,43.2415,35.6715)" pers-center="0,0" pers-size="0,0" pers-start="0,0" pers-end="0,0" locked="0" mesh="" flag=""/>
            <path id="shapePath1" d="M84.842,1.688 C83.753,0.574001 82.452,0 80.858,0 L5.672,0 C4.078,0 2.73,0.574001 1.64,1.688 C0.574001,2.777 0,4.125 0,5.672 L0,65.671 C0,67.218 0.549999,68.589 1.64,69.702 C2.707,70.792 4.078,71.343 5.672,71.343 L80.858,71.343 C82.452,71.343 83.776,70.792 84.842,69.702 C85.932,68.589 86.483,67.218 86.483,65.671 L86.483,5.672 C86.483,4.125 85.909,2.777 84.842,1.688 M81.327,65.671 C81.327,65.999 81.186,66.14 80.858,66.14 L5.672,66.14 C5.343,66.14 5.203,65.999 5.203,65.671 L5.203,5.672 C5.203,5.344 5.343,5.203 5.672,5.203 L80.858,5.203 C81.186,5.203 81.327,5.344 81.327,5.672 L81.327,65.671 Z" style="stroke:none;fill-rule:nonzero;fill:#e85248;fill-opacity:1;"/>
        </g>
        <g id="Shape2">
            <desc shapeID="2" type="0" basicInfo-basicType="0" basicInfo-roundedRectRadius="12" basicInfo-polygonSides="6" basicInfo-starPoints="5" bounding="rect(-4.453,-4.4765,8.906,8.953)" text="" font-familyName="" font-pixelSize="20" font-bold="0" font-underline="0" font-alignment="1" strokeStyle="0" markerStart="0" markerEnd="0" shadowEnabled="0" shadowOffsetX="0" shadowOffsetY="2" shadowBlur="4" shadowOpacity="160" blurEnabled="0" blurRadius="4" transform="matrix(1,0,0,1,61.968,26.0855)" pers-center="0,0" pers-size="0,0" pers-start="0,0" pers-end="0,0" locked="0" mesh="" flag=""/>
            <path id="shapePath2" d="M61.921,30.562 C64.405,30.562 66.421,28.5 66.421,26.015 C66.421,23.625 64.405,21.609 61.921,21.609 C59.53,21.609 57.515,23.625 57.515,26.015 C57.515,28.5 59.53,30.562 61.921,30.562 Z" style="stroke:none;fill-rule:nonzero;fill:#e85248;fill-opacity:1;"/>
        </g>
    </g>
</svg>
